<?xml version="1.0" encoding="utf-8"?>
<!-- Generator: Adobe Illustrator 18.1.1, SVG Export Plug-In . SVG Version: 6.00 Build 0)  -->
<svg version="1.1" id="Layer_1" xmlns="http://www.w3.org/2000/svg" xmlns:xlink="http://www.w3.org/1999/xlink" x="0px" y="0px"
	 viewBox="0 0 250 250" enable-background="new 0 0 250 250" xml:space="preserve">
<path fill="#FFFFFF" d="M162.8,107.8L103.5,7.2c8.3-1.4,15.4-2.1,21.3-2.1c31.1,0,57.8,10.5,80,31.6L162.8,107.8z M154.1,152
	l61.3-104c18.1,21.9,27.1,46.8,27.1,74.5c0,9.3-1.4,19.1-4.2,29.5H154.1z M128.8,78.3H16.4c6.5-16,16.1-29.8,28.7-41.6
	s27.3-20.3,44-25.5L128.8,78.3z M122.5,166.5h111.4c-6.5,15.8-16,29.5-28.6,41.2s-27,20.3-43.3,25.9L122.5,166.5z M96.4,93.3
	L34.8,197.5c-18.3-22.1-27.4-47.1-27.4-75c0-9.1,1.4-18.9,4.2-29.2H96.4z M87.7,136.7l59.8,101.1c-8.4,1.6-16,2.4-22.6,2.4
	c-30.2,0-56.7-10.5-79.5-31.6L87.7,136.7z"/>
</svg>
